<svg width="43" height="36" viewBox="0 0 43 36" fill="none" xmlns="http://www.w3.org/2000/svg">
<path d="M20.368 20.5314C25.7632 12.0541 29.1709 7.70124 36.3578 0.544128C32.4565 -1.12654 29.7496 0.898732 24.1751 8.72939L17.3223 19.5796L9.89846 17.2954C6.11892 16.4344 4.0123 15.8523 0 16.7243C6.21429 18.4466 9.62751 19.5826 15.4188 22.435C10.835 28.5808 7.85292 31.5236 1.52284 35.3791C5.13918 36.4529 7.14935 36.2055 10.6599 33.4755C13.9845 30.4881 15.8247 28.1166 18.8451 24.1481C25.1112 27.7591 28.6544 30.0794 34.835 32.7141C38.8249 33.5127 40.5009 33.3961 42.4492 31.3816C33.9825 27.7647 29.0964 25.3184 20.368 20.5314Z" fill="#4A659D"/>
<path d="M32.9314 14.8209C28.6111 16.9011 26.2043 18.1782 21.8908 20.9123L24.5558 22.435C31.0714 18.153 34.7949 16.0974 41.4974 12.727C38.4039 12.7851 36.5256 13.2229 32.9314 14.8209Z" fill="#4A659D"/>
</svg>
